#!OML:ASF H:\BabyWalks\Project 1\Capture day 1\Session 1\baby.ASF
:FULLY-SPECIFIED
:DEGREES
697
root 12.5623 16.8825 -0.154772 -516.639 88.7491 -528.37
lowerback 24.1305 0.677825 -6.289
upperback 7.57464 -0.16553 -4.17315
thorax -5.02242 0.226002 -0.926087
lowerneck -4.13915 -1.16236 3.1484
upperneck -11.0343 -0.783996 5.84667
head -2.80239 -0.520938 1.34821
rclavicle -7.95139e-015 -9.54166e-015
rhumerus -45.5262 11.2462 -89.5151
rradius 51.9027
rwrist -4.87901
rhand -15.9824 -15.9964
rfingers 7.12502
rthumb 10.2171 -45.7283
lclavicle -7.95139e-015 -9.54166e-015
lhumerus -36.733 -5.51527 67.4747
lradius 49.9262
lwrist -5.4439
lhand -6.94309 5.18026
lfingers 7.12502
lthumb 18.9256 34.2795
rfemur -18.075 5.9557 16.3682
rtibia 68.6313
rfoot -11.7523 20.2195
rtoes -15.1745
lfemur -34.4393 -1.79892 -17.0072
ltibia 50.2409
lfoot -29.925 -18.7899
ltoes 4.2316
698
root 12.7338 16.9026 -0.141141 -520.283 88.5927 -532.013
lowerback 24.2913 0.409647 -6.35152
upperback 7.50228 -0.547408 -4.13118
thorax -5.17052 0.0426605 -0.741608
lowerneck -4.03853 -1.05801 3.06474
upperneck -11.1095 -0.642685 5.75482
head -2.84777 -0.449743 1.33308
rclavicle 7.95139e-015 3.02153e-014
rhumerus -45.6498 11.4238 -89.4562
rradius 52.3573
rwrist -5.257
rhand -15.9691 -15.5552
rfingers 7.12502
rthumb 10.23 -45.2864
lclavicle 7.95139e-015 3.02153e-014
lhumerus -35.9549 -5.74906 67.7391
lradius 51.2332
lwrist -4.9374
lhand -7.55058 5.28671
lfingers 7.12502
lthumb 18.3412 34.442
rfemur -19.9693 5.69392 16.0903
rtibia 69.3854
rfoot -12.9467 19.994
rtoes -16.0206
lfemur -33.5904 -1.95697 -16.9998
ltibia 49.8611
lfoot -30.1981 -18.8678
ltoes 4.42045
699
root 12.9073 16.9286 -0.126383 -522.337 88.482 -534.067
lowerback 24.422 0.176087 -6.40547
upperback 7.43191 -0.879819 -4.06927
thorax -5.30104 -0.117391 -0.551994
lowerneck -3.98532 -0.947747 2.99338
upperneck -11.1303 -0.502967 5.63489
head -2.86603 -0.377133 1.30529
rclavicle 9.54166e-015 -1.59028e-015
rhumerus -45.7811 11.5728 -89.3582
rradius 52.7609
rwrist -5.69726
rhand -15.8872 -15.1434
rfingers 7.12502
rthumb 10.309 -44.8708
lclavicle 9.54166e-015 -1.59028e-015
lhumerus -35.2679 -6.12523 68.0555
lradius 52.7123
lwrist -4.56779
lhand -8.23379 5.35666
lfingers 7.12502
lthumb 17.6839 34.5725
rfemur -21.8348 5.54734 15.8401
rtibia 69.8412
rfoot -14.1239 19.5049
rtoes -16.9585
lfemur -32.6675 -2.10927 -16.9663
ltibia 49.3595
lfoot -30.3992 -18.923
ltoes 4.56554
700
root 13.0837 16.9609 -0.110779 -523.597 88.431 -535.327
lowerback 24.5055 -0.0190109 -6.46212
upperback 7.36932 -1.1583 -3.99321
thorax -5.39924 -0.252338 -0.359042
lowerneck -3.98307 -0.837223 2.92806
upperneck -11.0985 -0.370277 5.50503
head -2.85695 -0.306029 1.27209
rclavicle 1.35174e-014 2.70347e-014
rhumerus -45.9002 11.6827 -89.2192
rradius 53.0928
rwrist -6.15095
rhand -15.7303 -14.8092
rfingers 7.12502
rthumb 10.4604 -44.529
lclavicle 1.35174e-014 2.70347e-014
lhumerus -34.6635 -6.60846 68.3999
lradius 54.3343
lwrist -4.33287
lhand -8.98956 5.38187
lfingers 7.12502
lthumb 16.9565 34.6617
rfemur -23.6498 5.51883 15.6018
rtibia 69.979
rfoot -15.2309 18.8038
rtoes -17.6363
lfemur -31.6633 -2.25741 -16.9202
ltibia 48.734
lfoot -30.5276 -18.9447
ltoes 4.67239
701
root 13.264 16.9997 -0.0946382 -524.112 88.4461 -535.844
lowerback 24.5384 -0.172601 -6.50958
upperback 7.31307 -1.37651 -3.91043
thorax -5.46612 -0.359246 -0.180198
lowerneck -4.00872 -0.734552 2.88075
upperneck -11.0351 -0.252222 5.3707
head -2.83178 -0.241723 1.23397
rclavicle -3.97569e-015 -7.95139e-015
rhumerus -46.0088 11.7304 -89.047
rradius 53.3446
rwrist -6.58575
rhand -15.514 -14.588
rfingers 7.12502
rthumb 10.669 -44.2971
lclavicle -3.97569e-015 -7.95139e-015
lhumerus -34.1386 -7.18345 68.7516
lradius 56.0789
lwrist -4.19452
lhand -9.78006 5.39042
lfingers 7.12502
lthumb 16.1954 34.7339
rfemur -25.3937 5.61284 15.3739
rtibia 69.7812
rfoot -16.2089 17.9653
rtoes -18.2372
lfemur -30.5744 -2.39767 -16.862
ltibia 47.9869
lfoot -30.5828 -18.925
ltoes 4.7207
702
root 13.4487 17.0445 -0.0780752 -523.927 88.5235 -535.656
lowerback 24.5249 -0.286822 -6.55272
upperback 7.26583 -1.53795 -3.81604
thorax -5.50089 -0.439976 -0.00698511
lowerneck -4.05338 -0.641096 2.83904
upperneck -10.9541 -0.148849 5.23304
head -2.79694 -0.184284 1.1938
rclavicle 2.94201e-014 4.6118e-014
rhumerus -46.1021 11.7283 -88.8394
rradius 53.5131
rwrist -6.97636
rhand -15.2563 -14.5005
rfingers 7.12502
rthumb 10.9175 -44.1967
lclavicle 2.94201e-014 4.6118e-014
lhumerus -33.6932 -7.80913 69.1014
lradius 57.9184
lwrist -4.08904
lhand -10.5551 5.3813
lfingers 7.12502
lthumb 15.4491 34.7839
rfemur -27.0296 5.82308 15.1549
rtibia 69.2304
rfoot -17.0373 17.0651
rtoes -18.4577
lfemur -29.3948 -2.53775 -16.7947
ltibia 47.1244
lfoot -30.5656 -18.8525
ltoes 4.6859
703
root 13.638 17.0939 -0.0612897 -523.182 88.6521 -534.892
lowerback 24.4773 -0.363529 -6.58658
upperback 7.22722 -1.64483 -3.71224
thorax -5.51074 -0.495349 0.15568
lowerneck -4.09219 -0.563105 2.80745
upperneck -10.8802 -0.066056 5.08885
head -2.76515 -0.137679 1.15033
rclavicle 7.95139e-016 1.59028e-014
rhumerus -46.1867 11.6642 -88.5966
rradius 53.5996
rwrist -7.2902
rhand -14.9793 -14.5461
rfingers 7.12502
rthumb 11.1847 -44.228
lclavicle 7.95139e-016 1.59028e-014
lhumerus -33.3198 -8.4697 69.4434
lradius 59.8316
lwrist -3.94549
lhand -11.2491 5.3694
lfingers 7.12502
lthumb 14.7805 34.8224
rfemur -28.525 6.13538 14.938
rtibia 68.3208
rfoot -17.7119 16.1719
rtoes -18.4031
lfemur -28.1229 -2.68979 -16.7274
ltibia 46.1583
lfoot -30.4721 -18.724
ltoes 4.56714
704
root 13.832 17.1466 -0.0443722 -521.47 88.8214 -533.139
lowerback 24.4112 -0.406499 -6.6061
upperback 7.1959 -1.702 -3.59436
thorax -5.50525 -0.527499 0.311359
lowerneck -4.10812 -0.503811 2.77881
upperneck -10.8268 -0.0070591 4.93406
head -2.74403 -0.103743 1.10372
rclavicle 0 -2.8625e-014
rhumerus -46.2671 11.5521 -88.3177
rradius 53.6093
rwrist -7.52411
rhand -14.6784 -14.7211
rfingers 7.12502
rthumb 11.4749 -44.3871
lclavicle 0 -2.8625e-014
lhumerus -33.0148 -9.14809 69.7809
lradius 61.7896
lwrist -3.68536
lhand -11.8274 5.36676
lfingers 7.12502
lthumb 14.2233 34.8598
rfemur -29.8543 6.53945 14.7273
rtibia 67.0518
rfoot -18.2263 15.34
rtoes -18.0924
lfemur -26.7601 -2.85585 -16.6595
ltibia 45.1059
lfoot -30.3093 -18.536
ltoes 4.33934
705
root 14.0306 17.202 -0.0272349 -518.423 89.0095 -530.022
lowerback 24.3443 -0.42296 -6.60871
upperback 7.16829 -1.71973 -3.45824
thorax -5.49702 -0.541007 0.466157
lowerneck -4.096 -0.459161 2.75049
upperneck -10.8 0.0333157 4.75914
head -2.73654 -0.0797056 1.05128
rclavicle -1.19271e-014 -3.18055e-014
rhumerus -46.3498 11.3964 -88.002
rradius 53.5442
rwrist -7.65719
rhand -14.3781 -14.9907
rfingers 7.12502
rthumb 11.7645 -44.6403
lclavicle -1.19271e-014 -3.18055e-014
lhumerus -32.7863 -9.83586 70.1172
lradius 63.782
lwrist -3.25184
lhand -12.2591 5.37766
lfingers 7.12502
lthumb 13.8073 34.8994
rfemur -31.0047 7.01176 14.5237
rtibia 65.4359
rfoot -18.5956 14.5931
rtoes -17.6269
lfemur -25.3151 -3.04867 -16.5931
ltibia 43.9845
lfoot -30.0759 -18.2956
ltoes 3.9982
706
root 14.2333 17.2586 -0.00995125 -513.099 89.1944 -524.598
lowerback 24.2883 -0.421401 -6.58809
upperback 7.14116 -1.70855 -3.29896
thorax -5.49539 -0.540709 0.624973
lowerneck -4.04021 -0.426695 2.72905
upperneck -10.803 0.0567395 4.5428
head -2.74647 -0.0648277 0.985058
rclavicle -7.15625e-015 -9.54166e-015
rhumerus -46.4421 11.2175 -87.652
rradius 53.4065
rwrist -7.68662
rhand -14.0933 -15.321
rfingers 7.12502
rthumb 12.0391 -44.9547
lclavicle -7.15625e-015 -9.54166e-015
lhumerus -32.6341 -10.5061 70.4519
lradius 65.7865
lwrist -2.69512
lhand -12.4798 5.41895
lfingers 7.12502
lthumb 13.5946 34.9551
rfemur -31.9655 7.53598 14.3295
rtibia 63.4923
rfoot -18.8332 13.9556
rtoes -17.1884
lfemur -23.8004 -3.27535 -16.5265
ltibia 42.813
lfoot -29.7706 -18.0129
ltoes 3.53727
707
root 14.4396 17.3155 0.00751559 -504.197 89.3495 -515.572
lowerback 24.2462 -0.410674 -6.53322
upperback 7.10852 -1.67825 -3.1157
thorax -5.50861 -0.531179 0.785318
lowerneck -3.94231 -0.404646 2.71283
upperneck -10.8262 0.0644464 4.28331
head -2.77046 -0.0580817 0.904628
rclavicle 2.94201e-014 3.97569e-014
rhumerus -46.5498 11.0182 -87.2725
rradius 53.2042
rwrist -7.61109
rhand -13.8421 -15.6726
rfingers 7.12502
rthumb 12.2813 -45.292
lclavicle 2.94201e-014 3.97569e-014
lhumerus -32.5622 -11.1646 70.7906
lradius 67.7736
lwrist -1.99851
lhand -12.5658 5.4464
lfingers 7.12502
lthumb 13.5117 34.9881
rfemur -32.7568 8.09357 14.1485
rtibia 61.2511
rfoot -18.9624 13.418
rtoes -16.81
lfemur -22.2421 -3.53922 -16.4561
ltibia 41.6087
lfoot -29.3888 -17.7024
ltoes 2.96122
708
root 14.6491 17.3724 0.0251645 -491.895 89.4535 -503.129
lowerback 24.2239 -0.397771 -6.44526
upperback 7.06588 -1.63896 -2.90979
thorax -5.54413 -0.516985 0.94928
lowerneck -3.80625 -0.389424 2.71259
upperneck -10.8577 0.058277 3.9627
head -2.80379 -0.0581327 0.802199
rclavicle -1.51076e-014 -9.54166e-015
rhumerus -46.6786 10.8115 -86.8685
rradius 52.9442
rwrist -7.43615
rhand -13.6255 -16.0115
rfingers 7.12502
rthumb 12.4902 -45.6182
lclavicle -1.51076e-014 -9.54166e-015
lhumerus -32.5814 -11.8232 71.1473
lradius 69.718
lwrist -1.13303
lhand -12.6436 5.41267
lfingers 7.12502
lthumb 13.4367 34.9593
rfemur -33.3944 8.67381 13.9684
rtibia 58.7472
rfoot -19.0078 12.96
rtoes -16.5292
lfemur -20.6629 -3.83728 -16.3898
ltibia 40.3928
lfoot -28.9274 -17.387
ltoes 2.28647
709
root 14.8612 17.4286 0.0430116 -478.608 89.4896 -489.694
lowerback 24.2141 -0.39119 -6.31721
upperback 7.00793 -1.59981 -2.67952
thorax -5.60385 -0.502648 1.11727
lowerneck -3.64814 -0.372761 2.73565
upperneck -10.8751 0.04632 3.56974
head -2.83626 -0.0601869 0.672597
rclavicle -4.37326e-014 -6.20208e-014
rhumerus -46.8323 10.6178 -86.447
rradius 52.6341
rwrist -7.19715
rhand -13.4624 -16.3049
rfingers 7.12502
rthumb 12.6474 -45.902
lclavicle -4.37326e-014 -6.20208e-014
lhumerus -32.6896 -12.4619 71.5195
lradius 71.5935
lwrist -0.211164
lhand -12.7094 5.31427
lfingers 7.12502
lthumb 13.3733 34.8651
rfemur -33.9115 9.27017 13.7862
rtibia 56.0508
rfoot -18.9999 12.5691
rtoes -16.3656
lfemur -19.1134 -4.16045 -16.3214
ltibia 39.2365
lfoot -28.4174 -17.0875
ltoes 1.52784
710
root 15.0757 17.4831 0.0608952 -469.082 89.4657 -480.028
lowerback 24.2063 -0.396006 -6.13829
upperback 6.93203 -1.56435 -2.42972
thorax -5.68568 -0.489986 1.27884
lowerneck -3.48168 -0.355924 2.78688
upperneck -10.8596 0.0255136 3.10439
head -2.85921 -0.0653975 0.514946
rclavicle 2.78299e-014 -3.18055e-015
rhumerus -47.0118 10.4375 -86.0136
rradius 52.2825
rwrist -6.89905
rhand -13.342 -16.5389
rfingers 7.12502
rthumb 12.7635 -46.1287
lclavicle 2.78299e-014 -3.18055e-015
lhumerus -32.8786 -13.0734 71.8981
lradius 73.378
lwrist 0.655364
lhand -12.7647 5.15686
lfingers 7.12502
lthumb 13.32 34.7112
rfemur -34.3227 9.87272 13.5964
rtibia 53.187
rfoot -18.9702 12.1867
rtoes -16.0909
lfemur -17.6124 -4.4995 -16.248
ltibia 38.1313
lfoot -27.8344 -16.8325
ltoes 0.730568
